<svg width="691" height="690" viewBox="0 0 691 690" fill="none" xmlns="http://www.w3.org/2000/svg">
<mask id="mask0_39_37" style="mask-type:alpha" maskUnits="userSpaceOnUse" x="206" y="195" width="279" height="300">
<path d="M247.5 303.912C351.782 279.671 449.477 388.847 310 494.411C381.447 437.505 332.793 290.337 247.5 303.912C279.249 163.818 551.746 133.895 468.5 364.912C480.045 225.937 349.57 174.994 247.5 303.912C342.344 224.259 486.717 260.086 412 434.912C432.326 306.33 340.866 265.361 247.5 303.912Z" fill="#AEFFDE"/>
<circle cx="227" cy="323.912" r="21" fill="#AEFFDE"/>
</mask>
<g mask="url(#mask0_39_37)">
<rect x="-60" y="-49" width="818" height="743" fill="white"/>
</g>
<path d="M361.33 79.9126C361.214 80.7142 360.827 81.3731 360.17 81.8894C359.575 82.4098 358.905 82.6451 358.161 82.5953C357.294 82.5371 356.6 82.2104 356.079 81.6152C355.621 81.0242 355.419 80.3258 355.473 79.5201L359.447 20.2059C359.501 19.4002 359.826 18.7371 360.421 18.2167C361.016 17.6962 361.748 17.4651 362.615 17.5232C363.359 17.5731 363.991 17.8956 364.512 18.4908C365.094 19.0901 365.358 19.7927 365.304 20.5984L361.33 79.9126Z" fill="white"/>
<path d="M414.398 22.7879C414.812 22.9201 415.198 23.141 415.556 23.4507C415.972 23.7793 416.263 24.1979 416.426 24.7065L429.203 69.2731L426.835 68.4197L463.12 39.6018C464.054 38.9218 464.975 38.7919 465.884 39.2124C466.595 39.4389 467.101 39.894 467.405 40.5777C467.787 41.221 467.855 41.9273 467.609 42.6967L449.486 99.5095C449.259 100.22 448.795 100.756 448.092 101.119C447.39 101.482 446.654 101.54 445.884 101.295C445.056 101.03 444.46 100.547 444.097 99.8445C443.735 99.142 443.667 98.4356 443.893 97.7255L460.289 46.3276L461.831 47.0149L428.526 73.8494C428.235 74.1478 427.874 74.3588 427.444 74.4822C427.032 74.5465 426.599 74.4735 426.144 74.2633C425.711 74.1903 425.316 73.999 424.958 73.6893C424.679 73.3393 424.477 72.949 424.354 72.5184L412.765 30.9716L414.82 30.3557L397.999 83.0851C397.773 83.7952 397.308 84.3317 396.606 84.6944C395.962 85.076 395.256 85.1441 394.486 84.8986C393.717 84.6532 393.181 84.1887 392.877 83.505C392.574 82.8214 392.535 82.1245 392.762 81.4143L410.885 24.6015C411.112 23.8913 411.547 23.3454 412.19 22.9639C412.893 22.6011 413.628 22.5425 414.398 22.7879Z" fill="white"/>
<path d="M534.23 77.0315C537.085 79.018 539.148 81.4369 540.419 84.2881C541.725 87.0883 542.217 90.0791 541.895 93.2607C541.574 96.4422 540.384 99.5118 538.327 102.469C536.269 105.427 533.769 107.661 530.827 109.17C527.921 110.629 524.892 111.284 521.742 111.136C518.591 110.987 515.588 109.92 512.732 107.933L496.517 96.6524L497.431 96.1536L482.745 117.265C482.319 117.877 481.717 118.252 480.939 118.392C480.161 118.532 479.466 118.389 478.854 117.963C478.14 117.466 477.739 116.847 477.65 116.104C477.562 115.361 477.73 114.684 478.156 114.072L512.211 65.1188C512.636 64.5069 513.238 64.1311 514.017 63.9914C514.795 63.8518 515.49 63.9948 516.102 64.4205L534.23 77.0315ZM515.819 103.497C517.807 104.88 519.878 105.602 522.031 105.662C524.219 105.671 526.307 105.118 528.293 104.002C530.366 102.872 532.13 101.261 533.584 99.1703C535.039 97.0796 535.882 94.9423 536.115 92.7585C536.435 90.5591 536.174 88.4861 535.334 86.5395C534.493 84.5929 533.079 82.9278 531.09 81.5443L514.875 70.2636L515.736 69.8412L499.666 92.941L499.526 92.1628L515.819 103.497Z" fill="white"/>
<path d="M587.235 134.64L529.613 153.606C528.978 153.816 528.402 153.856 527.884 153.723C527.366 153.591 526.927 153.311 526.567 152.884C526.006 152.219 525.752 151.58 525.804 150.967C525.904 150.315 526.195 149.744 526.677 149.256C526.875 149.009 527.18 148.792 527.592 148.607L589.468 128.615C590.19 128.412 590.787 128.396 591.257 128.569C591.815 128.748 592.294 129.076 592.694 129.551C593.095 130.025 593.292 130.549 593.288 131.122C593.371 131.702 593.278 132.267 593.011 132.818L563.001 190.172C562.796 190.507 562.551 190.795 562.267 191.035C561.602 191.596 560.899 191.822 560.159 191.715C559.466 191.568 558.879 191.21 558.399 190.64C557.998 190.165 557.757 189.637 557.674 189.057C557.679 188.484 557.815 187.923 558.082 187.373L586.439 133.118L587.235 134.64ZM546.133 146.747L551.838 144.984L570.456 167.068L566.974 171.466L546.133 146.747Z" fill="white"/>
<path d="M648.442 232.328C648.291 233.211 647.871 233.874 647.184 234.315C646.553 234.732 645.797 234.864 644.913 234.713C644.226 234.543 643.715 234.158 643.381 233.559C643.046 232.96 642.895 232.314 642.926 231.62C643.386 228.832 643.457 226.013 643.141 223.162C642.85 220.368 642.074 217.552 640.812 214.714C639.272 211.252 637.209 208.295 634.622 205.842C632.118 203.42 629.209 201.621 625.898 200.442C622.643 199.238 619.177 198.706 615.5 198.846C611.848 199.042 608.149 199.974 604.403 201.64C600.544 203.356 597.303 205.546 594.68 208.208C592.113 210.845 590.187 213.775 588.901 216.998C587.641 220.278 587.071 223.659 587.192 227.141C587.312 230.622 588.13 234.066 589.645 237.471C590.882 240.252 592.44 242.687 594.32 244.774C596.225 246.918 598.339 248.765 600.66 250.316C601.253 250.732 601.632 251.278 601.796 251.952C602.042 252.659 601.97 253.337 601.579 253.987C601.182 254.775 600.576 255.248 599.763 255.406C599.031 255.596 598.328 255.466 597.653 255.019C596.114 254.004 594.518 252.708 592.865 251.132C591.212 249.555 589.679 247.79 588.266 245.835C586.795 243.905 585.581 241.862 584.622 239.705C582.804 235.619 581.838 231.459 581.723 227.227C581.609 222.995 582.267 218.895 583.697 214.928C585.185 210.935 587.448 207.311 590.487 204.056C593.552 200.857 597.383 198.236 601.98 196.191C606.407 194.222 610.806 193.183 615.177 193.075C619.605 192.941 623.786 193.631 627.722 195.143C631.659 196.656 635.201 198.888 638.349 201.839C641.497 204.79 643.992 208.337 645.835 212.48C647.274 215.715 648.208 219.039 648.638 222.451C649.068 225.863 649.002 229.156 648.442 232.328Z" fill="white"/>
<path d="M603.898 301.586C603.775 300.725 603.95 299.978 604.424 299.345C604.907 298.774 605.517 298.435 606.255 298.33L665.009 289.908L665.828 295.627L607.075 304.048C606.337 304.154 605.652 303.97 605.019 303.496C604.386 303.022 604.013 302.385 603.898 301.586ZM660.058 271.133C659.953 270.395 660.106 269.714 660.519 269.09C660.931 268.466 661.537 268.097 662.337 267.982C663.074 267.877 663.729 268.065 664.3 268.548C664.871 269.031 665.21 269.641 665.316 270.379L671.609 314.283C671.715 315.021 671.561 315.702 671.149 316.326C670.736 316.95 670.13 317.319 669.331 317.433C668.531 317.548 667.846 317.364 667.275 316.881C666.765 316.389 666.457 315.774 666.351 315.037L660.058 271.133Z" fill="white"/>
<path d="M622.686 399.943C623.152 397.82 624.094 395.991 625.511 394.458C626.99 392.938 628.728 391.825 630.728 391.119C632.713 390.474 634.768 390.384 636.892 390.85C639.076 391.33 640.935 392.278 642.468 393.696C643.988 395.174 645.071 396.906 645.716 398.892C646.361 400.878 646.451 402.933 645.985 405.056C645.519 407.18 644.577 409.008 643.159 410.542C641.742 412.075 640.033 413.194 638.034 413.9C636.035 414.606 633.943 414.72 631.759 414.24C629.635 413.774 627.813 412.802 626.294 411.324C624.774 409.846 623.661 408.107 622.955 406.108C622.309 404.122 622.22 402.067 622.686 399.943Z" fill="white"/>
<path d="M630.632 507.483C630.38 507.837 630.052 508.137 629.648 508.383C629.208 508.68 628.721 508.829 628.186 508.829L581.846 507.401L583.382 505.406L599.757 548.753C600.119 549.85 599.962 550.767 599.284 551.505C598.852 552.112 598.264 552.456 597.52 552.536C596.791 552.703 596.097 552.553 595.44 552.084L546.864 517.493C546.257 517.061 545.888 516.454 545.756 515.675C545.625 514.895 545.794 514.176 546.262 513.519C546.767 512.81 547.409 512.39 548.189 512.259C548.968 512.128 549.662 512.279 550.269 512.711L594.215 544.006L593.09 545.264L577.695 505.36C577.499 504.992 577.409 504.584 577.422 504.137C577.487 503.725 577.688 503.335 578.027 502.966C578.229 502.576 578.532 502.258 578.936 502.012C579.354 501.852 579.788 501.779 580.235 501.793L623.337 503.431L623.297 505.576L578.212 473.471C577.605 473.039 577.236 472.433 577.105 471.653C576.938 470.924 577.088 470.23 577.557 469.573C578.025 468.915 578.631 468.546 579.375 468.465C580.118 468.385 580.794 468.561 581.401 468.993L629.977 503.584C630.584 504.017 630.971 504.597 631.138 505.327C631.269 506.106 631.101 506.825 630.632 507.483Z" fill="white"/>
<path d="M539.719 598.277L524.364 539.589C524.194 538.942 524.191 538.364 524.355 537.856C524.519 537.347 524.825 536.926 525.274 536.593C525.973 536.075 526.626 535.861 527.234 535.951C527.88 536.091 528.431 536.417 528.888 536.928C529.123 537.141 529.32 537.459 529.479 537.882L545.594 600.878C545.752 601.612 545.731 602.208 545.529 602.667C545.315 603.213 544.959 603.67 544.46 604.041C543.961 604.411 543.426 604.576 542.855 604.536C542.271 604.582 541.712 604.455 541.18 604.154L485.798 570.644C485.476 570.419 485.204 570.156 484.982 569.857C484.464 569.159 484.281 568.444 484.434 567.711C484.623 567.029 485.018 566.466 485.616 566.021C486.115 565.651 486.657 565.443 487.241 565.396C487.812 565.436 488.364 565.607 488.897 565.908L541.288 597.576L539.719 598.277ZM530.186 556.503L531.591 562.305L508.395 579.518L504.221 575.77L530.186 556.503Z" fill="white"/>
<path d="M417.766 596.1C418.524 595.822 419.283 595.908 420.043 596.358L456.33 618.494L453.724 624.112L417.102 601.602C416.48 601.169 416.051 600.631 415.816 599.989C415.474 599.056 415.568 598.228 416.097 597.505C416.568 596.803 417.124 596.335 417.766 596.1ZM441.22 657.169C440.521 657.426 439.841 657.377 439.182 657.023C438.465 656.69 437.989 656.203 437.754 655.561C437.498 654.861 437.536 654.153 437.869 653.435L463.974 601.704L466.853 607.397L442.825 655.59C442.455 656.386 441.92 656.913 441.22 657.169ZM458.929 581.423C459.746 581.124 460.513 581.141 461.23 581.474C461.889 581.828 462.357 582.384 462.635 583.142L483.077 638.964C483.354 639.723 483.327 640.46 482.994 641.178C482.661 641.895 482.087 642.403 481.27 642.702C480.512 642.98 479.774 642.952 479.057 642.619C478.34 642.287 477.842 641.741 477.564 640.983L457.123 585.161C456.903 584.381 456.96 583.633 457.293 582.915C457.626 582.198 458.171 581.701 458.929 581.423Z" fill="white"/>
<path d="M391.252 668.539L357.16 671.206C356.416 671.264 355.744 671.036 355.143 670.522C354.547 670.071 354.218 669.442 354.155 668.637C354.092 667.832 354.32 667.16 354.838 666.621C355.357 666.082 355.988 665.783 356.731 665.725L388.686 663.226L387.881 664.877L385.839 638.774L386.955 639.902L359.087 642.082C358.344 642.14 357.672 641.912 357.071 641.398C356.47 640.885 356.141 640.256 356.082 639.513C356.019 638.708 356.247 638.036 356.766 637.497C357.284 636.958 357.915 636.659 358.658 636.601L386.341 634.436L385.577 635.43L383.485 608.677L383.993 609.198L352.502 611.661C351.759 611.719 351.087 611.491 350.486 610.978C349.885 610.464 349.555 609.835 349.497 609.092C349.434 608.287 349.662 607.615 350.18 607.076C350.699 606.537 351.33 606.238 352.073 606.18L386.165 603.514C386.908 603.455 387.58 603.683 388.181 604.197C388.782 604.711 389.112 605.339 389.17 606.082L393.82 665.534C393.878 666.277 393.651 666.95 393.137 667.55C392.623 668.151 391.995 668.481 391.252 668.539Z" fill="white"/>
<path d="M319.169 605.715C320.083 605.893 320.792 606.316 321.295 606.983C321.737 607.639 321.886 608.333 321.744 609.064L310.345 667.598C310.203 668.33 309.804 668.917 309.148 669.359C308.493 669.801 307.799 669.95 307.067 669.808L282.373 664.999C278.898 664.322 275.937 662.955 273.49 660.896C271.031 658.898 269.295 656.44 268.281 653.522C267.206 650.591 266.989 647.479 267.63 644.187C268.153 641.504 269.122 639.13 270.536 637.064C271.951 634.998 273.697 633.344 275.774 632.103C277.839 630.923 280.04 630.181 282.378 629.877L285.383 631.506C283.163 630.884 281.202 629.743 279.5 628.082C277.786 626.483 276.564 624.473 275.833 622.052C275.029 619.681 274.893 616.965 275.426 613.904C275.876 611.27 276.151 609.204 276.254 607.705C276.295 606.194 276.173 605.032 275.889 604.217C275.604 603.402 275.168 602.716 274.581 602.158C274.042 601.674 273.747 601.078 273.695 600.372C273.581 599.654 273.767 599.026 274.252 598.487C274.59 598.047 275.027 597.752 275.563 597.603C276.025 597.503 276.5 597.501 276.988 597.596C277.476 597.691 277.94 597.908 278.38 598.247C279.139 598.901 279.874 599.835 280.587 601.05C281.239 602.253 281.674 603.919 281.892 606.05C282.049 608.169 281.777 611.027 281.076 614.625C280.613 617.003 280.63 619.031 281.125 620.71C281.56 622.377 282.31 623.725 283.375 624.755C284.368 625.834 285.566 626.669 286.97 627.259C288.301 627.898 289.607 628.342 290.887 628.591L312.197 632.741L310.942 633.825L315.982 607.942C316.125 607.211 316.493 606.618 317.088 606.164C317.682 605.71 318.376 605.561 319.169 605.715ZM311.218 637.771L288.261 633.301C286.153 633.08 284.071 633.371 282.016 634.173C279.949 635.036 278.165 636.398 276.664 638.257C275.102 640.104 274.054 642.4 273.519 645.144C272.843 648.619 273.474 651.717 275.412 654.436C277.278 657.204 280.101 658.956 283.881 659.692L305.74 663.949L304.851 665.105L310.461 636.295L311.218 637.771Z" fill="white"/>
<path d="M232.875 579.481C237.123 581.541 240.454 584.044 242.868 586.991C245.282 589.938 247.21 593.51 248.65 597.706C248.817 598.067 248.927 598.47 248.983 598.915C248.982 599.331 248.871 599.762 248.648 600.206C248.314 600.872 247.758 601.358 246.98 601.663C246.146 601.94 245.396 601.911 244.73 601.577C244.063 601.243 243.592 600.66 243.315 599.826C242.318 596.408 240.765 593.406 238.656 590.821C236.492 588.207 233.827 586.107 230.661 584.521C227.996 583.185 225.427 582.419 222.954 582.222C220.427 581.997 218.162 582.356 216.161 583.299C214.16 584.241 212.645 585.74 211.615 587.795C210.335 590.349 209.999 592.752 210.608 595.003C211.189 597.309 212.368 599.533 214.144 601.673C215.892 603.87 217.945 606.08 220.305 608.305C222.247 610.112 224.038 611.948 225.675 613.81C227.284 615.729 228.588 617.702 229.586 619.731C230.557 621.816 231.027 623.997 230.997 626.275C230.967 628.553 230.298 630.997 228.99 633.607C227.515 636.55 225.429 638.771 222.733 640.268C220.037 641.766 216.952 642.444 213.48 642.301C209.924 642.187 206.258 641.183 202.482 639.291C199.206 637.649 196.346 635.521 193.904 632.907C191.406 630.266 189.812 627.417 189.12 624.36C188.732 623.054 188.719 622.04 189.081 621.318C189.36 620.763 189.916 620.347 190.749 620.07C191.583 619.793 192.333 619.821 192.999 620.155C193.555 620.433 193.929 620.864 194.123 621.448C194.483 623.087 195.162 624.713 196.16 626.325C197.131 627.993 198.38 629.522 199.906 630.913C201.377 632.275 203.057 633.43 204.945 634.376C207.555 635.684 210.124 636.45 212.652 636.675C215.096 636.927 217.305 636.61 219.278 635.723C221.196 634.808 222.684 633.295 223.742 631.185C224.91 628.853 225.204 626.603 224.623 624.435C224.042 622.268 222.919 620.142 221.254 618.057C219.561 616.027 217.702 613.983 215.676 611.926C213.622 610.063 211.734 608.144 210.014 606.17C208.21 604.224 206.795 602.194 205.769 600.082C204.688 597.942 204.162 595.664 204.192 593.247C204.167 590.802 204.892 588.108 206.367 585.165C207.786 582.332 209.872 580.181 212.624 578.712C215.375 577.242 218.501 576.55 222.001 576.637C225.446 576.696 229.07 577.644 232.875 579.481Z" fill="white"/>
<path d="M143.292 541.637C144.783 543.219 145.762 545.028 146.229 547.063C146.65 549.141 146.589 551.205 146.045 553.254C145.458 555.258 144.373 557.005 142.791 558.496C141.163 560.03 139.332 561.03 137.297 561.497C135.219 561.919 133.178 561.836 131.174 561.249C129.17 560.662 127.423 559.578 125.932 557.995C124.441 556.413 123.462 554.604 122.995 552.569C122.528 550.534 122.567 548.491 123.111 546.442C123.655 544.393 124.741 542.602 126.369 541.068C127.951 539.577 129.781 538.621 131.859 538.199C133.937 537.777 136 537.839 138.05 538.383C140.053 538.97 141.801 540.054 143.292 541.637Z" fill="white"/>
<path d="M52.4834 490.718L39.0692 459.263C38.7768 458.577 38.7781 457.868 39.073 457.134C39.3108 456.425 39.8011 455.912 40.544 455.595C41.2868 455.278 41.9964 455.28 42.6728 455.599C43.3492 455.918 43.8336 456.421 44.126 457.106L56.6995 486.59L54.877 486.355L78.9613 476.084L78.2491 477.502L67.2838 451.789C66.9914 451.103 66.9927 450.394 67.2877 449.66C67.5826 448.927 68.0729 448.414 68.7586 448.121C69.5014 447.804 70.211 447.806 70.8874 448.125C71.5639 448.444 72.0483 448.947 72.3407 449.633L83.2328 475.174L82.0468 474.768L106.731 464.241L106.4 464.889L94.0088 435.834C93.7164 435.148 93.7177 434.438 94.0126 433.705C94.3076 432.971 94.7979 432.458 95.4835 432.166C96.2264 431.849 96.936 431.85 97.6124 432.17C98.2888 432.489 98.7732 432.992 99.0656 433.677L112.48 465.133C112.772 465.818 112.771 466.528 112.476 467.261C112.181 467.995 111.691 468.508 111.005 468.8L56.1512 492.193C55.4655 492.485 54.7559 492.484 54.0223 492.189C53.2888 491.894 52.7758 491.404 52.4834 490.718Z" fill="white"/>
<path d="M18.6786 367.768C18.5643 366.906 18.7209 366.196 19.1482 365.638C19.5674 365.018 20.1465 364.66 20.8854 364.562C21.3165 364.505 21.7906 364.536 22.3077 364.655L84.5082 381.507C85.1648 381.734 85.6797 382.073 86.0529 382.525C86.4261 382.976 86.6454 383.449 86.7106 383.941C86.7841 384.496 86.6995 385.039 86.4569 385.573C86.2143 386.106 85.8281 386.502 85.2984 386.76L29.7153 419.129C29.5387 419.215 29.3313 419.305 29.0932 419.399C28.855 419.493 28.582 419.561 28.2741 419.602C27.4736 419.708 26.7903 419.516 26.2242 419.028C25.6499 418.477 25.322 417.894 25.2404 417.278C25.069 415.985 25.6239 414.971 26.9052 414.238L79.0818 383.824L79.3021 385.487L20.8688 370.109C19.5556 369.657 18.8255 368.876 18.6786 367.768Z" fill="white"/>
<path d="M18.8909 318.679L23.5916 284.807C23.6941 284.069 24.0607 283.461 24.6913 282.984C25.2603 282.499 25.9448 282.312 26.7447 282.423C27.5446 282.534 28.1522 282.9 28.5676 283.522C28.9829 284.144 29.1394 284.825 29.0369 285.563L24.6307 317.312L23.1898 316.171L49.1241 319.77L47.7834 320.619L51.626 292.931C51.7285 292.193 52.095 291.585 52.7257 291.108C53.3563 290.631 54.0407 290.444 54.7791 290.547C55.579 290.658 56.1866 291.024 56.602 291.646C57.0173 292.268 57.1738 292.948 57.0713 293.687L53.2543 321.19L52.4467 320.231L79.027 323.92L78.4092 324.305L82.7514 293.018C82.8538 292.279 83.2204 291.672 83.851 291.195C84.4816 290.718 85.1661 290.531 85.9044 290.633C86.7043 290.744 87.3119 291.111 87.7273 291.733C88.1427 292.355 88.2991 293.035 88.1966 293.773L83.4959 327.645C83.3934 328.383 83.0268 328.991 82.3962 329.468C81.7656 329.945 81.0811 330.132 80.3428 330.029L21.2754 321.832C20.537 321.729 19.9294 321.363 19.4525 320.732C18.9756 320.101 18.7884 319.417 18.8909 318.679Z" fill="white"/>
<path d="M54.1191 194.614C54.4493 193.877 54.93 193.412 55.5613 193.218C56.218 192.968 56.8865 192.995 57.5667 193.3L111.987 217.683C112.838 218.064 113.391 218.652 113.647 219.448C113.872 220.161 113.832 220.858 113.527 221.538C113.375 221.878 113.153 222.221 112.862 222.567C112.514 222.888 112.148 223.098 111.763 223.198L43.6661 238.225L43.5485 236.436L93.9726 259.029C94.5962 259.309 95.0331 259.777 95.2834 260.433C95.5338 261.09 95.5065 261.759 95.2017 262.439C94.8715 263.176 94.3781 263.669 93.7214 263.92C93.0901 264.113 92.4626 264.07 91.8391 263.791L37.1633 239.293C36.313 238.912 35.8037 238.378 35.6355 237.69C35.4106 236.976 35.4378 236.308 35.7172 235.684C35.8696 235.344 36.1197 235.014 36.4676 234.693C36.7588 234.347 37.1252 234.137 37.5669 234.063L104.878 219.194L106.027 220.73L55.4332 198.061C54.7529 197.757 54.2877 197.276 54.0373 196.619C53.8124 195.906 53.8397 195.237 54.1191 194.614Z" fill="white"/>
<path d="M143.589 177.45C143.022 178.11 142.345 178.469 141.556 178.529C140.808 178.541 140.152 178.304 139.587 177.818L94.5751 139.129L98.3408 134.748L143.352 173.437C143.918 173.923 144.23 174.56 144.289 175.349C144.349 176.137 144.116 176.838 143.589 177.45ZM83.6984 155.214C83.2125 155.779 82.5989 156.112 81.8577 156.212C81.1164 156.312 80.4395 156.099 79.8271 155.572C79.2618 155.086 78.973 154.469 78.9605 153.721C78.9481 152.974 79.1848 152.317 79.6707 151.752L108.581 118.117C109.067 117.551 109.681 117.219 110.422 117.119C111.164 117.019 111.84 117.232 112.453 117.758C113.065 118.285 113.378 118.922 113.39 119.67C113.355 120.377 113.095 121.013 112.609 121.579L83.6984 155.214Z" fill="white"/>
<path d="M193.755 131.9C189.905 134.633 186.108 136.349 182.363 137.047C178.618 137.745 174.559 137.716 170.188 136.96C169.791 136.932 169.384 136.835 168.968 136.669C168.603 136.469 168.279 136.164 167.997 135.755C167.574 135.141 167.416 134.42 167.523 133.591C167.681 132.727 168.067 132.083 168.68 131.66C169.294 131.236 170.033 131.104 170.897 131.262C174.373 132.033 177.751 132.116 181.032 131.512C184.365 130.872 187.488 129.546 190.402 127.535C192.856 125.841 194.764 123.957 196.126 121.885C197.539 119.777 198.314 117.619 198.45 115.412C198.587 113.204 198.002 111.154 196.697 109.263C195.073 106.911 193.129 105.461 190.862 104.912C188.561 104.311 186.045 104.275 183.314 104.801C180.547 105.277 177.621 106.014 174.536 107.011C172.016 107.845 169.546 108.531 167.126 109.07C164.669 109.558 162.312 109.751 160.053 109.65C157.759 109.497 155.621 108.86 153.638 107.737C151.656 106.615 149.835 104.853 148.176 102.45C146.306 99.7405 145.363 96.8438 145.348 93.7597C145.332 90.6757 146.222 87.6459 148.018 84.6703C149.829 81.6084 152.473 78.8775 155.949 76.4779C158.965 74.3958 162.206 72.9131 165.673 72.0299C169.19 71.1114 172.455 71.0843 175.467 71.9488C176.798 72.2374 177.694 72.714 178.152 73.3785C178.505 73.8897 178.603 74.5774 178.444 75.4415C178.286 76.3056 177.9 76.9494 177.287 77.3729C176.775 77.7258 176.217 77.8468 175.612 77.736C174.002 77.2624 172.25 77.0754 170.357 77.1749C168.428 77.2234 166.486 77.5823 164.533 78.2514C162.63 78.8853 160.81 79.8022 159.072 81.002C156.669 82.6606 154.762 84.5439 153.348 86.6517C151.951 88.6731 151.166 90.7621 150.994 92.9187C150.874 95.0401 151.484 97.072 152.825 99.0146C154.307 101.162 156.138 102.502 158.318 103.035C160.497 103.568 162.902 103.607 165.531 103.151C168.124 102.644 170.81 101.997 173.589 101.211C176.211 100.307 178.801 99.576 181.359 99.0177C183.933 98.3729 186.393 98.1091 188.738 98.2261C191.135 98.3079 193.385 98.9435 195.489 100.133C197.644 101.287 199.657 103.219 201.528 105.928C203.327 108.535 204.209 111.398 204.174 114.518C204.138 117.637 203.24 120.71 201.48 123.737C199.771 126.728 197.196 129.449 193.755 131.9Z" fill="white"/>
<path d="M270.099 71.6072C267.993 72.1478 265.936 72.1306 263.929 71.5557C261.906 70.9206 260.129 69.8696 258.598 68.4027C257.127 66.9205 256.122 65.1264 255.581 63.0205C255.025 60.8545 255.035 58.7678 255.61 56.7603C256.245 54.7375 257.303 52.9907 258.786 51.5199C260.268 50.0491 262.062 49.0435 264.168 48.5029C266.274 47.9623 268.33 47.9795 270.338 48.5544C272.345 49.1293 274.114 50.1502 275.645 51.6171C277.176 53.0839 278.22 54.9003 278.776 57.0664C279.316 59.1722 279.269 61.2366 278.634 63.2595C277.999 65.2823 276.948 67.0592 275.481 68.5902C273.999 70.0609 272.205 71.0666 270.099 71.6072Z" fill="white"/>
</svg>
